# xmcd
#
# Track frame offsets: 
#        150
#        17811
#        34223
#        50763
#        72707
#        93054
#        115111
#        139102
#        153912
#        173282
#        193448
#        211566
#
# Disc length: 3127 seconds
#
# Revision: 0
# Processed by: cddbd v1.5.2PL0 Copyright (c) Steve Scherf et al.
# Submitted via: ExactAudioCopy v0.99pb5
#
DISCID=a00c350c
DTITLE=Nuno Mindelis - Free Blues
DYEAR=2010
DGENRE=Blues
TTITLE0=Messing With The Kid
TTITLE1=Feeling Alright
TTITLE2=Get Out Of My Life, Woman
TTITLE3=All Your Love
TTITLE4=While Your Guitar Gently Weeps
TTITLE5=Thrill Is Gone
TTITLE6=Dust My Blues (Dust My Broom)
TTITLE7=Rockin' Daddy
TTITLE8=Rock Me Baby
TTITLE9=Think Stax, Jax!
TTITLE10=Bullfrog Blues
TTITLE11=Red House
EXTD=
EXTT0=
EXTT1=
EXTT2=
EXTT3=
EXTT4=
EXTT5=
EXTT6=
EXTT7=
EXTT8=
EXTT9=
EXTT10=
EXTT11=
PLAYORDER=
